<svg xmlns="http://www.w3.org/2000/svg" xmlns:xlink="http://www.w3.org/1999/xlink" width="2000" zoomAndPan="magnify" viewBox="0 0 1500 749.999995" height="1000" preserveAspectRatio="xMidYMid meet" version="1.0"><defs><g/></defs><g fill="#5170ff" fill-opacity="1"><g transform="translate(88.681188, 410.700967)"><g><path d="M 8.09375 -64.796875 L 8.09375 -81 L 24.296875 -81 L 24.296875 -64.796875 Z M 8.09375 0 L 8.09375 -16.203125 L 24.296875 -16.203125 L 24.296875 0 Z M 24.296875 -16.203125 L 24.296875 -32.40625 L 40.5 -32.40625 L 40.5 -16.203125 Z M 24.296875 -48.609375 L 24.296875 -64.796875 L 40.5 -64.796875 L 40.5 -48.609375 Z M 40.5 -32.40625 L 40.5 -48.609375 L 56.703125 -48.609375 L 56.703125 -32.40625 Z M 40.5 -32.40625 "/></g></g></g><g fill="#a4f01d" fill-opacity="1"><g transform="translate(161.935091, 410.700967)"><g/></g></g><g fill="#a4f01d" fill-opacity="1"><g transform="translate(218.986907, 410.700967)"><g><path d="M 24.296875 -32.40625 L 24.296875 0 L 8.09375 0 L 8.09375 -32.40625 Z M 8.09375 -48.609375 L 8.09375 -81 L 24.296875 -81 L 24.296875 -48.609375 Z M 24.296875 -32.40625 L 24.296875 -48.609375 L 72.90625 -48.609375 L 72.90625 -32.40625 Z M 72.90625 0 L 72.90625 -32.40625 L 89.109375 -32.40625 L 89.109375 0 Z M 72.90625 -48.609375 L 72.90625 -81 L 89.109375 -81 L 89.109375 -48.609375 Z M 72.90625 -48.609375 "/></g></g></g><g fill="#a4f01d" fill-opacity="1"><g transform="translate(324.642236, 410.700967)"><g><path d="M 8.09375 0 L 8.09375 -64.796875 L 24.296875 -64.796875 L 24.296875 -32.40625 L 72.90625 -32.40625 L 72.90625 -64.796875 L 89.109375 -64.796875 L 89.109375 0 L 72.90625 0 L 72.90625 -16.203125 L 24.296875 -16.203125 L 24.296875 0 Z M 24.296875 -64.796875 L 24.296875 -81 L 72.90625 -81 L 72.90625 -64.796875 Z M 24.296875 -64.796875 "/></g></g></g><g fill="#a4f01d" fill-opacity="1"><g transform="translate(430.297565, 410.700967)"><g><path d="M 8.09375 0 L 8.09375 -81 L 24.296875 -81 L 24.296875 -48.609375 L 56.703125 -48.609375 L 56.703125 -32.40625 L 24.296875 -32.40625 L 24.296875 0 Z M 56.703125 -16.203125 L 56.703125 -32.40625 L 72.90625 -32.40625 L 72.90625 -16.203125 Z M 56.703125 -48.609375 L 56.703125 -64.796875 L 72.90625 -64.796875 L 72.90625 -48.609375 Z M 72.90625 0 L 72.90625 -16.203125 L 89.109375 -16.203125 L 89.109375 0 Z M 72.90625 -64.796875 L 72.90625 -81 L 89.109375 -81 L 89.109375 -64.796875 Z M 72.90625 -64.796875 "/></g></g></g><g fill="#16181d" fill-opacity="1"><g transform="translate(535.96242, 410.700967)"><g><path d="M 8.09375 0 L 8.09375 -64.796875 L 24.296875 -64.796875 L 24.296875 -32.40625 L 72.90625 -32.40625 L 72.90625 -64.796875 L 89.109375 -64.796875 L 89.109375 0 L 72.90625 0 L 72.90625 -16.203125 L 24.296875 -16.203125 L 24.296875 0 Z M 24.296875 -64.796875 L 24.296875 -81 L 72.90625 -81 L 72.90625 -64.796875 Z M 24.296875 -64.796875 "/></g></g></g><g fill="#16181d" fill-opacity="1"><g transform="translate(633.517003, 410.700967)"><g><path d="M 40.5 0 L 40.5 -64.796875 L 8.09375 -64.796875 L 8.09375 -81 L 89.109375 -81 L 89.109375 -64.796875 L 56.703125 -64.796875 L 56.703125 0 Z M 40.5 0 "/></g></g></g><g fill="#16181d" fill-opacity="1"><g transform="translate(731.071587, 410.700967)"><g><path d="M 72.90625 -16.203125 L 72.90625 0 L 24.296875 0 L 24.296875 -16.203125 Z M 8.09375 -16.203125 L 8.09375 -64.796875 L 24.296875 -64.796875 L 24.296875 -16.203125 Z M 24.296875 -64.796875 L 24.296875 -81 L 72.90625 -81 L 72.90625 -64.796875 Z M 72.90625 -16.203125 L 72.90625 -64.796875 L 89.109375 -64.796875 L 89.109375 -16.203125 Z M 72.90625 -16.203125 "/></g></g></g><g fill="#16181d" fill-opacity="1"><g transform="translate(836.726916, 410.700967)"><g><path d="M 8.09375 0 L 8.09375 -81 L 24.296875 -81 L 24.296875 -48.609375 L 72.90625 -48.609375 L 72.90625 -81 L 89.109375 -81 L 89.109375 0 L 72.90625 0 L 72.90625 -32.40625 L 24.296875 -32.40625 L 24.296875 0 Z M 8.09375 0 "/></g></g></g><g fill="#16181d" fill-opacity="1"><g transform="translate(942.382245, 410.700967)"><g><path d="M 24.296875 0 L 24.296875 -16.203125 L 56.703125 -16.203125 L 56.703125 -64.796875 L 72.90625 -64.796875 L 72.90625 -16.203125 L 102.984375 -16.203125 L 102.984375 -81 L 119.1875 -81 L 119.1875 16.203125 L 102.984375 16.203125 L 102.984375 0 Z M 8.09375 -16.203125 L 8.09375 -81 L 24.296875 -81 L 24.296875 -16.203125 Z M 8.09375 -16.203125 "/></g></g></g><g fill="#16181d" fill-opacity="1"><g transform="translate(1078.125466, 410.700967)"><g><path d="M 72.90625 0 L 72.90625 -48.609375 L 56.703125 -48.609375 L 56.703125 -64.796875 L 72.90625 -64.796875 L 72.90625 -81 L 89.109375 -81 L 89.109375 0 Z M 8.09375 0 L 8.09375 -81 L 24.296875 -81 L 24.296875 -32.40625 L 40.5 -32.40625 L 40.5 -16.203125 L 24.296875 -16.203125 L 24.296875 0 Z M 40.5 -32.40625 L 40.5 -48.609375 L 56.703125 -48.609375 L 56.703125 -32.40625 Z M 40.5 -32.40625 "/></g></g></g><g fill="#16181d" fill-opacity="1"><g transform="translate(1183.780795, 410.700967)"><g><path d="M 8.09375 0 L 8.09375 -81 L 24.296875 -81 L 24.296875 -48.609375 L 56.703125 -48.609375 L 56.703125 -32.40625 L 24.296875 -32.40625 L 24.296875 0 Z M 56.703125 -16.203125 L 56.703125 -32.40625 L 72.90625 -32.40625 L 72.90625 -16.203125 Z M 56.703125 -48.609375 L 56.703125 -64.796875 L 72.90625 -64.796875 L 72.90625 -48.609375 Z M 72.90625 0 L 72.90625 -16.203125 L 89.109375 -16.203125 L 89.109375 0 Z M 72.90625 -64.796875 L 72.90625 -81 L 89.109375 -81 L 89.109375 -64.796875 Z M 72.90625 -64.796875 "/></g></g></g><g fill="#ffffff" fill-opacity="1"><g transform="translate(1289.442848, 410.700967)"><g/></g></g><g fill="#5170ff" fill-opacity="1"><g transform="translate(1346.501421, 410.700967)"><g><path d="M 40.5 -64.796875 L 40.5 -48.609375 L 24.296875 -48.609375 L 24.296875 -64.796875 Z M 8.09375 -32.40625 L 8.09375 -48.609375 L 24.296875 -48.609375 L 24.296875 -32.40625 Z M 24.296875 -16.203125 L 24.296875 -32.40625 L 40.5 -32.40625 L 40.5 -16.203125 Z M 40.5 0 L 40.5 -16.203125 L 56.703125 -16.203125 L 56.703125 0 Z M 40.5 -64.796875 L 40.5 -81 L 56.703125 -81 L 56.703125 -64.796875 Z M 40.5 -64.796875 "/></g></g></g></svg>