<svg xmlns="http://www.w3.org/2000/svg" xmlns:xlink="http://www.w3.org/1999/xlink" width="2000" zoomAndPan="magnify" viewBox="0 0 1500 749.999995" height="1000" preserveAspectRatio="xMidYMid meet" version="1.0"><defs><g/><clipPath id="0d151eb2a6"><rect x="0" width="1333" y="0" height="121"/></clipPath></defs><rect x="-150" width="1800" fill="#ffffff" y="-74.999999" height="899.999994" fill-opacity="1"/><rect x="-150" width="1800" fill="#16181d" y="-74.999999" height="899.999994" fill-opacity="1"/><g transform="matrix(1, 0, 0, 1, 88, 313)"><g clip-path="url(#0d151eb2a6)"><g fill="#5170ff" fill-opacity="1"><g transform="translate(0.692396, 97.484826)"><g><path d="M 8.09375 -64.796875 L 8.09375 -81 L 24.296875 -81 L 24.296875 -64.796875 Z M 8.09375 0 L 8.09375 -16.203125 L 24.296875 -16.203125 L 24.296875 0 Z M 24.296875 -16.203125 L 24.296875 -32.40625 L 40.5 -32.40625 L 40.5 -16.203125 Z M 24.296875 -48.609375 L 24.296875 -64.796875 L 40.5 -64.796875 L 40.5 -48.609375 Z M 40.5 -32.40625 L 40.5 -48.609375 L 56.703125 -48.609375 L 56.703125 -32.40625 Z M 40.5 -32.40625 "/></g></g></g><g fill="#a4f01d" fill-opacity="1"><g transform="translate(73.953094, 97.484826)"><g/></g></g><g fill="#a4f01d" fill-opacity="1"><g transform="translate(131.003485, 97.484826)"><g><path d="M 24.296875 -32.40625 L 24.296875 0 L 8.09375 0 L 8.09375 -32.40625 Z M 8.09375 -48.609375 L 8.09375 -81 L 24.296875 -81 L 24.296875 -48.609375 Z M 24.296875 -32.40625 L 24.296875 -48.609375 L 72.90625 -48.609375 L 72.90625 -32.40625 Z M 72.90625 0 L 72.90625 -32.40625 L 89.109375 -32.40625 L 89.109375 0 Z M 72.90625 -48.609375 L 72.90625 -81 L 89.109375 -81 L 89.109375 -48.609375 Z M 72.90625 -48.609375 "/></g></g></g><g fill="#a4f01d" fill-opacity="1"><g transform="translate(236.655974, 97.484826)"><g><path d="M 8.09375 0 L 8.09375 -64.796875 L 24.296875 -64.796875 L 24.296875 -32.40625 L 72.90625 -32.40625 L 72.90625 -64.796875 L 89.109375 -64.796875 L 89.109375 0 L 72.90625 0 L 72.90625 -16.203125 L 24.296875 -16.203125 L 24.296875 0 Z M 24.296875 -64.796875 L 24.296875 -81 L 72.90625 -81 L 72.90625 -64.796875 Z M 24.296875 -64.796875 "/></g></g></g><g fill="#a4f01d" fill-opacity="1"><g transform="translate(342.308451, 97.484826)"><g><path d="M 8.09375 0 L 8.09375 -81 L 24.296875 -81 L 24.296875 -48.609375 L 56.703125 -48.609375 L 56.703125 -32.40625 L 24.296875 -32.40625 L 24.296875 0 Z M 56.703125 -16.203125 L 56.703125 -32.40625 L 72.90625 -32.40625 L 72.90625 -16.203125 Z M 56.703125 -48.609375 L 56.703125 -64.796875 L 72.90625 -64.796875 L 72.90625 -48.609375 Z M 72.90625 0 L 72.90625 -16.203125 L 89.109375 -16.203125 L 89.109375 0 Z M 72.90625 -64.796875 L 72.90625 -81 L 89.109375 -81 L 89.109375 -64.796875 Z M 72.90625 -64.796875 "/></g></g></g><g fill="#ffffff" fill-opacity="1"><g transform="translate(447.965343, 97.484826)"><g><path d="M 8.09375 0 L 8.09375 -64.796875 L 24.296875 -64.796875 L 24.296875 -32.40625 L 72.90625 -32.40625 L 72.90625 -64.796875 L 89.109375 -64.796875 L 89.109375 0 L 72.90625 0 L 72.90625 -16.203125 L 24.296875 -16.203125 L 24.296875 0 Z M 24.296875 -64.796875 L 24.296875 -81 L 72.90625 -81 L 72.90625 -64.796875 Z M 24.296875 -64.796875 "/></g></g></g><g fill="#ffffff" fill-opacity="1"><g transform="translate(545.517075, 97.484826)"><g><path d="M 40.5 0 L 40.5 -64.796875 L 8.09375 -64.796875 L 8.09375 -81 L 89.109375 -81 L 89.109375 -64.796875 L 56.703125 -64.796875 L 56.703125 0 Z M 40.5 0 "/></g></g></g><g fill="#ffffff" fill-opacity="1"><g transform="translate(643.068808, 97.484826)"><g><path d="M 72.90625 -16.203125 L 72.90625 0 L 24.296875 0 L 24.296875 -16.203125 Z M 8.09375 -16.203125 L 8.09375 -64.796875 L 24.296875 -64.796875 L 24.296875 -16.203125 Z M 24.296875 -64.796875 L 24.296875 -81 L 72.90625 -81 L 72.90625 -64.796875 Z M 72.90625 -16.203125 L 72.90625 -64.796875 L 89.109375 -64.796875 L 89.109375 -16.203125 Z M 72.90625 -16.203125 "/></g></g></g><g fill="#ffffff" fill-opacity="1"><g transform="translate(748.721296, 97.484826)"><g><path d="M 8.09375 0 L 8.09375 -81 L 24.296875 -81 L 24.296875 -48.609375 L 72.90625 -48.609375 L 72.90625 -81 L 89.109375 -81 L 89.109375 0 L 72.90625 0 L 72.90625 -32.40625 L 24.296875 -32.40625 L 24.296875 0 Z M 8.09375 0 "/></g></g></g><g fill="#ffffff" fill-opacity="1"><g transform="translate(854.373785, 97.484826)"><g><path d="M 24.296875 0 L 24.296875 -16.203125 L 56.703125 -16.203125 L 56.703125 -64.796875 L 72.90625 -64.796875 L 72.90625 -16.203125 L 102.984375 -16.203125 L 102.984375 -81 L 119.1875 -81 L 119.1875 16.203125 L 102.984375 16.203125 L 102.984375 0 Z M 8.09375 -16.203125 L 8.09375 -81 L 24.296875 -81 L 24.296875 -16.203125 Z M 8.09375 -16.203125 "/></g></g></g><g fill="#ffffff" fill-opacity="1"><g transform="translate(990.11329, 97.484826)"><g><path d="M 72.90625 0 L 72.90625 -48.609375 L 56.703125 -48.609375 L 56.703125 -64.796875 L 72.90625 -64.796875 L 72.90625 -81 L 89.109375 -81 L 89.109375 0 Z M 8.09375 0 L 8.09375 -81 L 24.296875 -81 L 24.296875 -32.40625 L 40.5 -32.40625 L 40.5 -16.203125 L 24.296875 -16.203125 L 24.296875 0 Z M 40.5 -32.40625 L 40.5 -48.609375 L 56.703125 -48.609375 L 56.703125 -32.40625 Z M 40.5 -32.40625 "/></g></g></g><g fill="#ffffff" fill-opacity="1"><g transform="translate(1095.765799, 97.484826)"><g><path d="M 8.09375 0 L 8.09375 -81 L 24.296875 -81 L 24.296875 -48.609375 L 56.703125 -48.609375 L 56.703125 -32.40625 L 24.296875 -32.40625 L 24.296875 0 Z M 56.703125 -16.203125 L 56.703125 -32.40625 L 72.90625 -32.40625 L 72.90625 -16.203125 Z M 56.703125 -48.609375 L 56.703125 -64.796875 L 72.90625 -64.796875 L 72.90625 -48.609375 Z M 72.90625 0 L 72.90625 -16.203125 L 89.109375 -16.203125 L 89.109375 0 Z M 72.90625 -64.796875 L 72.90625 -81 L 89.109375 -81 L 89.109375 -64.796875 Z M 72.90625 -64.796875 "/></g></g></g><g fill="#ffffff" fill-opacity="1"><g transform="translate(1201.418309, 97.484826)"><g/></g></g><g fill="#5170ff" fill-opacity="1"><g transform="translate(1258.473707, 97.484826)"><g><path d="M 40.5 -64.796875 L 40.5 -48.609375 L 24.296875 -48.609375 L 24.296875 -64.796875 Z M 8.09375 -32.40625 L 8.09375 -48.609375 L 24.296875 -48.609375 L 24.296875 -32.40625 Z M 24.296875 -16.203125 L 24.296875 -32.40625 L 40.5 -32.40625 L 40.5 -16.203125 Z M 40.5 0 L 40.5 -16.203125 L 56.703125 -16.203125 L 56.703125 0 Z M 40.5 -64.796875 L 40.5 -81 L 56.703125 -81 L 56.703125 -64.796875 Z M 40.5 -64.796875 "/></g></g></g></g></g></svg>